<?xml version="1.0" encoding="UTF-8" standalone="no"?>
<!DOCTYPE svg PUBLIC "-//W3C//DTD SVG 1.1//EN" "http://www.w3.org/Graphics/SVG/1.1/DTD/svg11.dtd">
<svg version="1.1" xmlns="http://www.w3.org/2000/svg" xmlns:xlink="http://www.w3.org/1999/xlink" preserveAspectRatio="xMidYMid meet" viewBox="0 0 640 640" width="64" height="64"><defs><path d="M640 320C640 496.61 496.61 640 320 640C143.39 640 0 496.61 0 320C0 143.39 143.39 0 320 0C496.61 0 640 143.39 640 320Z" id="b1gfwNd6zi"></path><clipPath id="clipa2Qh2VbrtJ"><use xlink:href="#b1gfwNd6zi" opacity="1"></use></clipPath><path d="M500.67 135.19C553.28 182.43 566.78 253.32 530.8 293.38C494.83 333.45 422.9 327.62 370.29 280.37C317.67 233.13 304.17 162.24 340.15 122.17C376.13 82.11 448.05 87.94 500.67 135.19Z" id="b62LYYrj50"></path><path d="M213.85 227.25L213.85 227.25L213.85 228.7L213.85 228.7L213.85 227.25Z" id="c3xLpGrzYH"></path></defs><g><g><g><use xlink:href="#b1gfwNd6zi" opacity="1" fill="#eaeaea" fill-opacity="1"></use><g clip-path="url(#clipa2Qh2VbrtJ)"><use xlink:href="#b1gfwNd6zi" opacity="1" fill-opacity="0" stroke="#813eb8" stroke-width="74.67" stroke-opacity="1"></use></g></g><g><use xlink:href="#b62LYYrj50" opacity="1" fill="#813eb8" fill-opacity="1"></use><g><use xlink:href="#b62LYYrj50" opacity="1" fill-opacity="0" stroke="#813eb8" stroke-width="1" stroke-opacity="1"></use></g></g><g><use xlink:href="#c3xLpGrzYH" opacity="1" fill="#f0f0f0" fill-opacity="1"></use></g></g></g></svg>